<svg xmlns="http://www.w3.org/2000/svg" xmlns:xlink="http://www.w3.org/1999/xlink" width="20" zoomAndPan="magnify" viewBox="0 0 30 30" height="20" preserveAspectRatio="xMidYMid meet" version="1.0"><defs><g/><clipPath id="d10c82867e"><path d="M 0.484375 0 L 29.515625 0 L 29.515625 29.03125 L 0.484375 29.03125 Z M 0.484375 0 " clip-rule="nonzero"/></clipPath></defs><g clip-path="url(#d10c82867e)"><path fill="#ffff00" d="M 0.484375 0 L 29.515625 0 L 29.515625 29.03125 L 0.484375 29.03125 Z M 0.484375 0 " fill-opacity="0" fill-rule="nonzero"/><path fill="#ffff00" d="M 0.484375 0 L 29.515625 0 L 29.515625 29.03125 L 0.484375 29.03125 Z M 0.484375 0 " fill-opacity="0" fill-rule="nonzero"/></g><g fill="#ffff00" fill-opacity="1"><g transform="translate(0.48387, 18.78558)"><g><path d="M 12.46875 -17.4375 C 14.625 -17.4375 16.304688 -16.925781 17.515625 -15.90625 C 18.722656 -14.894531 19.328125 -13.4375 19.328125 -11.53125 C 19.328125 -10.625 19.191406 -9.648438 18.921875 -8.609375 C 18.410156 -6.691406 17.617188 -5.066406 16.546875 -3.734375 C 15.472656 -2.398438 14.191406 -1.390625 12.703125 -0.703125 C 11.210938 -0.0234375 9.597656 0.3125 7.859375 0.3125 C 5.722656 0.3125 4.050781 -0.191406 2.84375 -1.203125 C 1.632812 -2.222656 1.03125 -3.691406 1.03125 -5.609375 C 1.03125 -6.484375 1.171875 -7.484375 1.453125 -8.609375 C 1.953125 -10.503906 2.734375 -12.113281 3.796875 -13.4375 C 4.867188 -14.757812 6.140625 -15.753906 7.609375 -16.421875 C 9.085938 -17.097656 10.707031 -17.4375 12.46875 -17.4375 Z M 12.015625 -14.9375 C 11.503906 -14.9375 11.039062 -14.726562 10.625 -14.3125 C 10.21875 -13.90625 9.8125 -13.234375 9.40625 -12.296875 C 9.007812 -11.367188 8.582031 -10.078125 8.125 -8.421875 C 7.4375 -6.035156 7.09375 -4.390625 7.09375 -3.484375 C 7.09375 -2.953125 7.1875 -2.566406 7.375 -2.328125 C 7.5625 -2.085938 7.859375 -1.96875 8.265625 -1.96875 C 8.785156 -1.96875 9.25 -2.175781 9.65625 -2.59375 C 10.0625 -3.019531 10.460938 -3.691406 10.859375 -4.609375 C 11.253906 -5.535156 11.691406 -6.804688 12.171875 -8.421875 C 12.828125 -10.773438 13.15625 -12.429688 13.15625 -13.390625 C 13.15625 -13.941406 13.0625 -14.335938 12.875 -14.578125 C 12.6875 -14.816406 12.398438 -14.9375 12.015625 -14.9375 Z M 12.015625 -14.9375 "/></g></g></g></svg>